<svg xmlns="http://www.w3.org/2000/svg" width="349.86" height="35" viewBox="0 0 349.86 35"><rect class="svg__rect" x="0" y="0" width="127.25" height="35" fill="#7F00F5" data-darkreader-inline-fill="" style="--darkreader-inline-fill:#0a85ac;"/><rect class="svg__rect" x="125.25" y="0" width="224.60999999999999" height="35" fill="#C300FF" data-darkreader-inline-fill="" style="--darkreader-inline-fill:#9c00cc;"/><path class="svg__text" d="M15.70 22L14.22 22L14.22 13.47L17.48 13.47Q18.91 13.47 19.75 14.21Q20.59 14.96 20.59 16.18L20.59 16.18Q20.59 17.44 19.77 18.13Q18.95 18.83 17.46 18.83L17.46 18.83L15.70 18.83L15.70 22ZM15.70 14.66L15.70 17.64L17.48 17.64Q18.27 17.64 18.69 17.27Q19.10 16.90 19.10 16.19L19.10 16.19Q19.10 15.50 18.68 15.09Q18.26 14.68 17.52 14.66L17.52 14.66L15.70 14.66ZM24.61 18.00L24.61 18.00L24.61 17.52Q24.61 16.28 25.05 15.32Q25.49 14.37 26.30 13.86Q27.10 13.35 28.14 13.35Q29.19 13.35 29.99 13.85Q30.80 14.35 31.24 15.29Q31.68 16.23 31.68 17.48L31.68 17.48L31.68 17.96Q31.68 19.21 31.25 20.16Q30.82 21.10 30.01 21.61Q29.21 22.12 28.16 22.12L28.16 22.12Q27.12 22.12 26.31 21.61Q25.50 21.10 25.05 20.17Q24.61 19.23 24.61 18.00ZM26.09 17.46L26.09 17.96Q26.09 19.36 26.64 20.13Q27.18 20.90 28.16 20.90L28.16 20.90Q29.14 20.90 29.67 20.15Q30.20 19.40 30.20 17.96L30.20 17.96L30.20 17.51Q30.20 16.09 29.67 15.34Q29.13 14.58 28.14 14.58L28.14 14.58Q27.18 14.58 26.64 15.33Q26.10 16.09 26.09 17.46L26.09 17.46ZM37.53 22L35.56 13.47L37.03 13.47L38.36 19.88L39.99 13.47L41.23 13.47L42.84 19.89L44.15 13.47L45.62 13.47L43.65 22L42.24 22L40.61 15.77L38.96 22L37.53 22ZM55.27 22L49.70 22L49.70 13.47L55.23 13.47L55.23 14.66L51.18 14.66L51.18 17.02L54.68 17.02L54.68 18.19L51.18 18.19L51.18 20.82L55.27 20.82L55.27 22ZM60.95 22L59.47 22L59.47 13.47L62.47 13.47Q63.95 13.47 64.75 14.13Q65.55 14.79 65.55 16.05L65.55 16.05Q65.55 16.90 65.14 17.48Q64.72 18.06 63.99 18.37L63.99 18.37L65.90 21.92L65.90 22L64.31 22L62.60 18.71L60.95 18.71L60.95 22ZM60.95 14.66L60.95 17.52L62.48 17.52Q63.23 17.52 63.65 17.15Q64.07 16.77 64.07 16.11L64.07 16.11Q64.07 15.43 63.68 15.05Q63.29 14.68 62.52 14.66L62.52 14.66L60.95 14.66ZM75.52 22L69.95 22L69.95 13.47L75.48 13.47L75.48 14.66L71.43 14.66L71.43 17.02L74.93 17.02L74.93 18.19L71.43 18.19L71.43 20.82L75.52 20.82L75.52 22ZM82.17 22L79.72 22L79.72 13.47L82.24 13.47Q83.37 13.47 84.25 13.97Q85.12 14.48 85.60 15.40Q86.08 16.33 86.08 17.52L86.08 17.52L86.08 17.95Q86.08 19.16 85.60 20.08Q85.12 21.00 84.22 21.50Q83.33 22 82.17 22L82.17 22ZM81.20 14.66L81.20 20.82L82.17 20.82Q83.33 20.82 83.96 20.09Q84.58 19.36 84.59 17.99L84.59 17.99L84.59 17.52Q84.59 16.13 83.99 15.40Q83.39 14.66 82.24 14.66L82.24 14.66L81.20 14.66ZM99.64 22L96.52 22L96.52 13.47L99.45 13.47Q100.89 13.47 101.65 14.05Q102.41 14.63 102.41 15.78L102.41 15.78Q102.41 16.36 102.09 16.83Q101.77 17.30 101.16 17.56L101.16 17.56Q101.86 17.75 102.23 18.26Q102.61 18.78 102.61 19.51L102.61 19.51Q102.61 20.71 101.84 21.36Q101.07 22 99.64 22L99.64 22ZM98.01 18.15L98.01 20.82L99.65 20.82Q100.35 20.82 100.74 20.47Q101.14 20.13 101.14 19.51L101.14 19.51Q101.14 18.18 99.78 18.15L99.78 18.15L98.01 18.15ZM98.01 14.66L98.01 17.06L99.46 17.06Q100.15 17.06 100.54 16.75Q100.93 16.43 100.93 15.86L100.93 15.86Q100.93 15.23 100.57 14.95Q100.21 14.66 99.45 14.66L99.45 14.66L98.01 14.66ZM109.12 18.86L106.26 13.47L107.90 13.47L109.87 17.51L111.83 13.47L113.47 13.47L110.61 18.86L110.61 22L109.12 22L109.12 18.86Z" fill="#FFFFFF" data-darkreader-inline-fill="" style="--darkreader-inline-fill:#181a1b;"/><path class="svg__text" d="M138.85 21.24L138.85 21.24L139.63 19.49Q140.19 19.86 140.94 20.09Q141.68 20.32 142.40 20.32L142.40 20.32Q143.77 20.32 143.77 19.64L143.77 19.64Q143.77 19.28 143.38 19.11Q142.99 18.93 142.13 18.74L142.13 18.74Q141.18 18.53 140.54 18.30Q139.91 18.06 139.45 17.55Q139.00 17.03 139.00 16.16L139.00 16.16Q139.00 15.39 139.42 14.77Q139.84 14.15 140.67 13.79Q141.51 13.43 142.71 13.43L142.71 13.43Q143.54 13.43 144.35 13.62Q145.15 13.80 145.77 14.17L145.77 14.17L145.03 15.93Q143.83 15.28 142.70 15.28L142.70 15.28Q141.99 15.28 141.67 15.49Q141.35 15.70 141.35 16.04L141.35 16.04Q141.35 16.37 141.73 16.54Q142.12 16.71 142.97 16.89L142.97 16.89Q143.93 17.10 144.56 17.33Q145.19 17.56 145.65 18.07Q146.11 18.58 146.11 19.46L146.11 19.46Q146.11 20.21 145.69 20.83Q145.27 21.44 144.43 21.80Q143.59 22.17 142.39 22.17L142.39 22.17Q141.37 22.17 140.41 21.92Q139.45 21.67 138.85 21.24ZM153.07 22L150.69 22L150.69 13.60L154.53 13.60Q155.67 13.60 156.51 13.98Q157.35 14.35 157.81 15.06Q158.26 15.76 158.26 16.71L158.26 16.71Q158.26 17.66 157.81 18.35Q157.35 19.05 156.51 19.42Q155.67 19.80 154.53 19.80L154.53 19.80L153.07 19.80L153.07 22ZM153.07 15.47L153.07 17.93L154.39 17.93Q155.12 17.93 155.49 17.61Q155.86 17.29 155.86 16.71L155.86 16.71Q155.86 16.12 155.49 15.80Q155.12 15.47 154.39 15.47L154.39 15.47L153.07 15.47ZM169.76 22L163.02 22L163.02 13.60L169.61 13.60L169.61 15.44L165.37 15.44L165.37 16.85L169.10 16.85L169.10 18.63L165.37 18.63L165.37 20.17L169.76 20.17L169.76 22ZM174.14 17.80L174.14 17.80Q174.14 16.54 174.73 15.54Q175.33 14.55 176.38 13.99Q177.44 13.43 178.75 13.43L178.75 13.43Q179.91 13.43 180.83 13.84Q181.75 14.25 182.37 15.02L182.37 15.02L180.86 16.39Q180.04 15.40 178.88 15.40L178.88 15.40Q178.19 15.40 177.66 15.70Q177.13 16 176.83 16.54Q176.53 17.09 176.53 17.80L176.53 17.80Q176.53 18.51 176.83 19.05Q177.13 19.60 177.66 19.90Q178.19 20.20 178.88 20.20L178.88 20.20Q180.04 20.20 180.86 19.22L180.86 19.22L182.37 20.58Q181.76 21.35 180.83 21.76Q179.91 22.17 178.75 22.17L178.75 22.17Q177.44 22.17 176.38 21.61Q175.33 21.05 174.73 20.05Q174.14 19.06 174.14 17.80ZM188.70 15.48L186.11 15.48L186.11 13.60L193.64 13.60L193.64 15.48L191.07 15.48L191.07 22L188.70 22L188.70 15.48ZM200.39 22L198.01 22L198.01 13.60L200.39 13.60L200.39 22ZM207.41 22L204.70 22L207.76 17.75L204.83 13.60L207.51 13.60L209.19 16.02L210.84 13.60L213.41 13.60L210.48 17.66L213.61 22L210.87 22L209.13 19.40L207.41 22ZM224.63 22L217.89 22L217.89 13.60L224.48 13.60L224.48 15.44L220.24 15.44L220.24 16.85L223.98 16.85L223.98 18.63L220.24 18.63L220.24 20.17L224.63 20.17L224.63 22ZM231.77 22L229.44 22L229.44 13.60L231.39 13.60L235.10 18.07L235.10 13.60L237.43 13.60L237.43 22L235.48 22L231.77 17.52L231.77 22ZM251.90 22L249.56 22L249.56 13.60L251.52 13.60L255.23 18.07L255.23 13.60L257.56 13.60L257.56 22L255.61 22L251.90 17.52L251.90 22ZM269.46 22L262.72 22L262.72 13.60L269.31 13.60L269.31 15.44L265.07 15.44L265.07 16.85L268.81 16.85L268.81 18.63L265.07 18.63L265.07 20.17L269.46 20.17L269.46 22ZM276.06 15.48L273.48 15.48L273.48 13.60L281.00 13.60L281.00 15.48L278.43 15.48L278.43 22L276.06 22L276.06 15.48ZM287.45 22L284.73 13.60L287.18 13.60L288.86 18.96L290.64 13.60L292.82 13.60L294.52 19.01L296.28 13.60L298.55 13.60L295.82 22L293.28 22L291.68 16.89L289.99 22L287.45 22ZM302.63 17.80L302.63 17.80Q302.63 16.55 303.24 15.55Q303.84 14.56 304.90 14.00Q305.97 13.43 307.30 13.43L307.30 13.43Q308.63 13.43 309.69 14.00Q310.75 14.56 311.36 15.55Q311.97 16.55 311.97 17.80L311.97 17.80Q311.97 19.05 311.36 20.04Q310.75 21.04 309.69 21.60Q308.63 22.17 307.30 22.17L307.30 22.17Q305.97 22.17 304.90 21.60Q303.84 21.04 303.24 20.04Q302.63 19.05 302.63 17.80ZM305.03 17.80L305.03 17.80Q305.03 18.51 305.33 19.05Q305.63 19.60 306.15 19.90Q306.66 20.20 307.30 20.20L307.30 20.20Q307.94 20.20 308.45 19.90Q308.97 19.60 309.27 19.05Q309.56 18.51 309.56 17.80L309.56 17.80Q309.56 17.09 309.27 16.54Q308.97 16 308.45 15.70Q307.94 15.40 307.30 15.40L307.30 15.40Q306.66 15.40 306.15 15.70Q305.63 16 305.33 16.54Q305.03 17.09 305.03 17.80ZM319.07 22L316.70 22L316.70 13.60L320.54 13.60Q321.68 13.60 322.52 13.98Q323.36 14.35 323.81 15.06Q324.27 15.76 324.27 16.71L324.27 16.71Q324.27 17.62 323.84 18.30Q323.42 18.98 322.63 19.36L322.63 19.36L324.44 22L321.89 22L320.37 19.77L319.07 19.77L319.07 22ZM319.07 15.47L319.07 17.93L320.39 17.93Q321.13 17.93 321.50 17.61Q321.87 17.29 321.87 16.71L321.87 16.71Q321.87 16.12 321.50 15.79Q321.13 15.47 320.39 15.47L320.39 15.47L319.07 15.47ZM331.41 22L329.06 22L329.06 13.60L331.41 13.60L331.41 17.09L334.67 13.60L337.28 13.60L333.85 17.32L337.46 22L334.70 22L332.30 18.95L331.41 19.90L331.41 22Z" fill="#FFFFFF" x="138.25" data-darkreader-inline-fill="" style="--darkreader-inline-fill:#181a1b;"/></svg>